<?xml version="1.0" encoding="UTF-8" standalone="no"?>
<svg
   xmlns:dc="http://purl.org/dc/elements/1.1/"
   xmlns:cc="http://creativecommons.org/ns#"
   xmlns:rdf="http://www.w3.org/1999/02/22-rdf-syntax-ns#"
   xmlns:svg="http://www.w3.org/2000/svg"
   xmlns="http://www.w3.org/2000/svg"
   xmlns:sodipodi="http://sodipodi.sourceforge.net/DTD/sodipodi-0.dtd"
   xmlns:inkscape="http://www.inkscape.org/namespaces/inkscape"
   version="1.1"
   x="0px"
   y="0px"
   width="214px"
   height="36px"
   viewBox="0 0 214 36"
   enable-background="new 0 0 214 36"
   xml:space="preserve"
   id="svg3710"
   sodipodi:docname="Visual_Studio_2017_logo_and_wordmark.svg"
   inkscape:version="0.92.1 r15371"><metadata
     id="metadata3716"><rdf:RDF><cc:Work
         rdf:about=""><dc:format>image/svg+xml</dc:format><dc:type
           rdf:resource="http://purl.org/dc/dcmitype/StillImage" /><dc:title></dc:title></cc:Work></rdf:RDF></metadata><defs
     id="defs3714" /><sodipodi:namedview
     pagecolor="#ffffff"
     bordercolor="#666666"
     borderopacity="1"
     objecttolerance="10"
     gridtolerance="10"
     guidetolerance="10"
     inkscape:pageopacity="0"
     inkscape:pageshadow="2"
     inkscape:window-width="1218"
     inkscape:window-height="1001"
     id="namedview3712"
     showgrid="false"
     inkscape:zoom="5.1074766"
     inkscape:cx="107"
     inkscape:cy="10.168344"
     inkscape:window-x="54"
     inkscape:window-y="-8"
     inkscape:window-maximized="1"
     inkscape:current-layer="svg3710" /><g
     enable-background="new"
     id="g3694"
     style="fill:#865fc5;fill-opacity:1"><path
       fill="#68217A"
       d="M65.481,7.128l-8.038,21.706h-2.8L46.772,7.128h2.831l6.009,17.21c0.191,0.556,0.338,1.196,0.439,1.923  h0.061c0.081-0.605,0.247-1.257,0.5-1.952l6.13-17.181H65.481z"
       id="path3682"
       style="fill:#865fc5;fill-opacity:1" /><path
       fill="#68217A"
       d="M68.608,9.398c-0.444,0-0.823-0.151-1.135-0.454c-0.313-0.303-0.469-0.687-0.469-1.15  s0.156-0.85,0.469-1.158c0.313-0.308,0.691-0.462,1.135-0.462c0.454,0,0.84,0.154,1.158,0.462c0.317,0.309,0.477,0.694,0.477,1.158  c0,0.444-0.159,0.822-0.477,1.136C69.448,9.242,69.062,9.398,68.608,9.398z M69.819,28.834h-2.482v-15.5h2.482V28.834z"
       id="path3684"
       style="fill:#865fc5;fill-opacity:1" /><path
       fill="#68217A"
       d="M72.976,28.273v-2.664c1.352,1,2.84,1.499,4.465,1.499c2.18,0,3.27-0.727,3.27-2.18  c0-0.414-0.093-0.765-0.28-1.052c-0.187-0.288-0.439-0.543-0.757-0.765c-0.318-0.222-0.691-0.421-1.12-0.598  c-0.429-0.177-0.891-0.361-1.385-0.553c-0.687-0.272-1.289-0.547-1.809-0.825c-0.52-0.277-0.953-0.59-1.302-0.938  c-0.348-0.348-0.61-0.744-0.787-1.188c-0.176-0.443-0.265-0.963-0.265-1.559c0-0.727,0.167-1.37,0.5-1.93  c0.333-0.561,0.777-1.029,1.332-1.408c0.555-0.378,1.188-0.663,1.9-0.855c0.711-0.191,1.445-0.287,2.202-0.287  c1.342,0,2.543,0.232,3.603,0.696v2.513c-1.141-0.747-2.452-1.12-3.936-1.12c-0.464,0-0.883,0.053-1.256,0.159  c-0.374,0.105-0.694,0.255-0.961,0.446c-0.267,0.191-0.474,0.422-0.62,0.688c-0.146,0.268-0.22,0.563-0.22,0.886  c0,0.403,0.073,0.741,0.22,1.015c0.146,0.271,0.36,0.514,0.643,0.727c0.282,0.211,0.625,0.403,1.029,0.574  c0.403,0.172,0.863,0.358,1.377,0.561c0.686,0.263,1.302,0.532,1.847,0.81c0.545,0.278,1.009,0.591,1.393,0.938  c0.383,0.349,0.679,0.75,0.886,1.203c0.207,0.455,0.31,0.994,0.31,1.62c0,0.767-0.169,1.433-0.507,1.998  c-0.338,0.565-0.79,1.034-1.354,1.407c-0.565,0.374-1.216,0.651-1.953,0.833c-0.737,0.182-1.509,0.272-2.316,0.272  C75.529,29.197,74.146,28.89,72.976,28.273z"
       id="path3686"
       style="fill:#865fc5;fill-opacity:1" /><path
       fill="#68217A"
       d="M98.671,28.834h-2.482v-2.452h-0.061c-1.029,1.877-2.624,2.815-4.783,2.815c-3.693,0-5.54-2.2-5.54-6.6  v-9.264h2.467v8.87c0,3.27,1.251,4.904,3.754,4.904c1.211,0,2.208-0.446,2.99-1.34c0.782-0.893,1.173-2.061,1.173-3.504v-8.931  h2.482V28.834z"
       id="path3688"
       style="fill:#865fc5;fill-opacity:1" /><path
       fill="#68217A"
       d="M113.847,28.834h-2.482v-2.422h-0.061c-1.08,1.856-2.669,2.785-4.768,2.785  c-1.544,0-2.752-0.408-3.625-1.227c-0.873-0.816-1.31-1.901-1.31-3.254c0-2.896,1.705-4.581,5.116-5.056l4.647-0.651  c0-2.633-1.065-3.95-3.194-3.95c-1.867,0-3.552,0.636-5.055,1.907v-2.543c1.523-0.969,3.279-1.453,5.268-1.453  c3.643,0,5.464,1.928,5.464,5.782V28.834z M111.364,20.993l-3.739,0.515c-1.15,0.161-2.018,0.446-2.603,0.855  c-0.585,0.408-0.878,1.133-0.878,2.172c0,0.757,0.27,1.375,0.81,1.854c0.54,0.479,1.259,0.719,2.157,0.719  c1.231,0,2.249-0.432,3.049-1.294c0.803-0.863,1.204-1.955,1.204-3.277V20.993z"
       id="path3690"
       style="fill:#865fc5;fill-opacity:1" /><path
       fill="#68217A"
       d="M120.076,28.834h-2.482V5.887h2.482V28.834z"
       id="path3692"
       style="fill:#865fc5;fill-opacity:1" /></g><g
     enable-background="new"
     id="g3708"
     style="fill:#865fc5;fill-opacity:1"><path
       fill="#68217A"
       d="M127.832,27.956v-2.997c0.342,0.303,0.754,0.575,1.233,0.817s0.983,0.446,1.514,0.613  c0.529,0.166,1.062,0.295,1.597,0.386s1.029,0.137,1.483,0.137c1.563,0,2.732-0.29,3.504-0.871c0.772-0.58,1.158-1.415,1.158-2.505  c0-0.585-0.129-1.095-0.386-1.528c-0.258-0.435-0.613-0.83-1.067-1.188s-0.991-0.701-1.612-1.029  c-0.62-0.328-1.289-0.674-2.006-1.037c-0.756-0.384-1.463-0.772-2.119-1.165c-0.656-0.395-1.226-0.828-1.71-1.303  c-0.484-0.474-0.865-1.011-1.143-1.611c-0.278-0.601-0.417-1.305-0.417-2.111c0-0.989,0.217-1.85,0.651-2.581  c0.434-0.731,1.004-1.335,1.71-1.81c0.707-0.474,1.512-0.827,2.415-1.059c0.903-0.232,1.823-0.349,2.763-0.349  c2.139,0,3.697,0.257,4.677,0.772v2.86c-1.282-0.888-2.927-1.332-4.935-1.332c-0.555,0-1.11,0.059-1.665,0.174  c-0.556,0.116-1.05,0.306-1.483,0.567c-0.434,0.263-0.787,0.601-1.06,1.015s-0.409,0.918-0.409,1.514  c0,0.555,0.104,1.034,0.311,1.438c0.207,0.403,0.512,0.771,0.916,1.104c0.403,0.333,0.896,0.656,1.476,0.969  c0.581,0.313,1.249,0.656,2.006,1.029c0.776,0.384,1.514,0.787,2.21,1.211s1.307,0.894,1.832,1.407  c0.523,0.516,0.94,1.085,1.248,1.711c0.309,0.626,0.462,1.342,0.462,2.149c0,1.069-0.21,1.976-0.628,2.717  c-0.419,0.742-0.984,1.345-1.695,1.81c-0.712,0.464-1.531,0.8-2.46,1.006c-0.929,0.207-1.907,0.311-2.937,0.311  c-0.344,0-0.768-0.028-1.271-0.083c-0.505-0.056-1.02-0.137-1.544-0.242c-0.524-0.106-1.021-0.237-1.491-0.394  C128.49,28.322,128.113,28.147,127.832,27.956z"
       id="path3696"
       style="fill:#865fc5;fill-opacity:1" /><path
       fill="#68217A"
       d="M150.707,28.683c-0.585,0.323-1.357,0.484-2.315,0.484c-2.715,0-4.071-1.514-4.071-4.541v-9.173h-2.664  v-2.119h2.664V9.55l2.482-0.802v4.586h3.904v2.119h-3.904v8.734c0,1.039,0.176,1.78,0.529,2.225s0.938,0.666,1.756,0.666  c0.625,0,1.166-0.172,1.619-0.515V28.683z"
       id="path3698"
       style="fill:#865fc5;fill-opacity:1" /><path
       fill="#68217A"
       d="M166.09,28.834h-2.482v-2.452h-0.061c-1.029,1.877-2.623,2.815-4.783,2.815c-3.693,0-5.539-2.2-5.539-6.6  v-9.264h2.467v8.87c0,3.27,1.251,4.904,3.754,4.904c1.211,0,2.207-0.446,2.99-1.34c0.781-0.893,1.172-2.061,1.172-3.504v-8.931  h2.482V28.834z"
       id="path3700"
       style="fill:#865fc5;fill-opacity:1" /><path
       fill="#68217A"
       d="M183.865,28.834h-2.482V26.2h-0.061c-1.15,1.998-2.927,2.997-5.328,2.997c-1.947,0-3.504-0.693-4.67-2.081  c-1.165-1.388-1.748-3.277-1.748-5.669c0-2.563,0.646-4.617,1.938-6.16c1.291-1.545,3.012-2.316,5.162-2.316  c2.129,0,3.678,0.838,4.646,2.513h0.061V5.887h2.482V28.834z M181.383,21.826V19.54c0-1.251-0.414-2.311-1.241-3.179  s-1.877-1.302-3.148-1.302c-1.514,0-2.704,0.555-3.572,1.665s-1.302,2.644-1.302,4.602c0,1.786,0.416,3.196,1.249,4.23  c0.832,1.035,1.95,1.552,3.353,1.552c1.383,0,2.505-0.499,3.368-1.499C180.951,24.611,181.383,23.35,181.383,21.826z"
       id="path3702"
       style="fill:#865fc5;fill-opacity:1" /><path
       fill="#68217A"
       d="M189.697,9.398c-0.444,0-0.822-0.151-1.135-0.454c-0.313-0.303-0.47-0.687-0.47-1.15s0.156-0.85,0.47-1.158  c0.313-0.308,0.69-0.462,1.135-0.462c0.454,0,0.84,0.154,1.158,0.462c0.317,0.309,0.477,0.694,0.477,1.158  c0,0.444-0.159,0.822-0.477,1.136C190.537,9.242,190.151,9.398,189.697,9.398z M190.908,28.834h-2.482v-15.5h2.482V28.834z"
       id="path3704"
       style="fill:#865fc5;fill-opacity:1" /><path
       fill="#68217A"
       d="M201.947,29.197c-2.291,0-4.12-0.724-5.488-2.172c-1.367-1.448-2.051-3.368-2.051-5.76  c0-2.604,0.712-4.637,2.135-6.1c1.423-1.464,3.346-2.195,5.768-2.195c2.311,0,4.114,0.711,5.41,2.135  c1.297,1.422,1.945,3.396,1.945,5.918c0,2.473-0.698,4.453-2.096,5.941C206.172,28.453,204.298,29.197,201.947,29.197z   M202.129,15.06c-1.596,0-2.856,0.543-3.785,1.627c-0.928,1.085-1.393,2.581-1.393,4.488c0,1.837,0.47,3.284,1.408,4.345  c0.938,1.059,2.195,1.589,3.77,1.589c1.604,0,2.838-0.52,3.701-1.56c0.861-1.039,1.293-2.518,1.293-4.435  c0-1.938-0.432-3.431-1.293-4.48C204.967,15.584,203.732,15.06,202.129,15.06z"
       id="path3706"
       style="fill:#865fc5;fill-opacity:1" /></g><path
     inkscape:connector-curvature="0"
     class="brand-vside"
     d="M 26.9982,0 V 30.9195 L 0,26.9091 26.9982,36 35.9973,32.256 V 3.744 Z m -17.721,17.3196 8.2683,8.1801 4.95,-2.106 V 7.3557 l -4.95,-2.106 -8.2683,8.181 -4.9788,-3.753 -2.0511,0.6867 v 10.0215 l 2.0511,0.6867 z m 8.2683,-6.2325 v 8.577 l -5.6889,-4.2885 z m -13.2471,1.3068 3.0132,2.9808 -3.0132,2.9817 z"
     id="iconBg"
     style="fill:#865fc5;fill-opacity:1;stroke-width:0.89999998" /></svg>